# xmcd
#
# Track frame offsets:
#	150
#	14587
#	28825
#	42945
#	56022
#	69350
#	82890
#	96227
#	110465
#	123345
#	136567
#	149480
#	162230
#	173802
#	185397
#	197420
#	208960
#	221035
#	232822
#	246217
#	259440
#	272145
#	285112
#
# Disc length: 3984 seconds
#
# Revision: 0
# Processed by: cddbd v1.5.1PL2 Copyright (c) Steve Scherf et al.
# Submitted via: dBpowerAMP V4.0
#
DISCID=4d0f8e17
DTITLE=Peetie Wheatstraw - Peetie Wheatstraw Vol 6 1938 - 1940
DYEAR=1900
DGENRE=blues
TTITLE0=Black Horse Blues
TTITLE1=Sugar Mama
TTITLE2=Me No Lika You
TTITLE3=Possum Den Blues (take A)
TTITLE4=Possum Den Blues (take B)
TTITLE5=Little Low Mellow Mama
TTITLE6=A Working Man's Blues
TTITLE7=One To Twelve (Just As Show)
TTITLE8=Let's Talk Things Over
TTITLE9=Sinking Sun Blues
TTITLE10=Easy Way Blues
TTITLE11=Machine Gun Blues
TTITLE12=Beer Tavern
TTITLE13=You Can't Stop Me From Drinking
TTITLE14=I Want Some Sca Food
TTITLE15=Rolling Chair
TTITLE16=Love Bug Blues
TTITLE17=Confidental Man
TTITLE18=Big Apple Blues
TTITLE19=Big Money Blues
TTITLE20=Chicago Mill Blues
TTITLE21=Five Minutes Blues
TTITLE22=Two Time Mama
EXTD=Document DOCD-5246
EXTT0=
EXTT1=
EXTT2=
EXTT3=
EXTT4=
EXTT5=
EXTT6=
EXTT7=
EXTT8=
EXTT9=
EXTT10=
EXTT11=
EXTT12=
EXTT13=
EXTT14=
EXTT15=
EXTT16=
EXTT17=
EXTT18=
EXTT19=
EXTT20=
EXTT21=
EXTT22=
PLAYORDER=
